<svg xmlns="http://www.w3.org/2000/svg" xmlns:xlink="http://www.w3.org/1999/xlink" width="615" height="600"><style><![CDATA[.B{color-interpolation-filters:sRGB}.C{stroke-linecap:round}]]></style><defs><linearGradient id="A" x1="309.256" y1="50.9" x2="312.199" y2="559.078" gradientUnits="userSpaceOnUse"><stop offset="0" stop-color="#b0e098"/><stop offset=".5" stop-color="#70c485"/><stop offset="1" stop-color="#04a171"/></linearGradient><linearGradient id="B" x1="314.577" y1="26.014" x2="309.181" y2="573.962" gradientUnits="userSpaceOnUse"><stop offset="0" stop-color="#fdfdfd"/><stop offset="1" stop-color="#cbcbcb"/></linearGradient><filter id="C" x="-.023" width="1.046" y="-.025" height="1.05" class="B"><feGaussianBlur stdDeviation="3.295"/></filter><filter id="D" x="-.192" width="1.385" y="-.192" height="1.384" class="B"><feGaussianBlur stdDeviation="3.295"/></filter><filter id="E" x="-.036" width="1.072" y="-.036" height="1.072" class="B"><feGaussianBlur stdDeviation="8.47"/></filter><path id="F" d="M375.715-197.787c5.793-29.553 2.553-51.981-11.138-60.894-4.564-2.971-10.035-4.271-16.193-4.037-33.253 1.266-86.908 47.163-130.746 114.831-51.956 80.2-70.42 160.577-41.211 179.59 13.864 9.027 35.958 2.628 60.917-15.201"/><path id="G" d="M402.361-66.637c24.66-9.59 39.824-22.716 40.612-37.79 1.823-34.864-73.865-67.141-169.13-72.146-8.93-.47-17.713-.716-26.303-.687-83.04.28-147.858 23.115-149.51 54.71-.786 15.046 12.888 29.634 36.328 41.741"/><path id="H" d="M292.907-107.768a20.563 20.613 0 0 1-41.126 0 20.563 20.613 0 1 1 41.126 0z"/></defs><circle cx="311.766" cy="303.864" r="282.331" fill="#b3b3b3" filter="url(#E)"/><circle r="282.331" cy="299.864" cx="307.766" fill="url(#B)"/><circle cx="307.766" cy="299.864" r="258.168" fill="url(#A)"/><g transform="translate(37.332 410.873)"><g fill="none" class="C"><g transform="translate(.728 3.272)" stroke="#b3b3b3" filter="url(#C)" stroke-width="15"><use xlink:href="#F"/><use xlink:href="#G"/><path d="M246.94-249.749c-16.872-14.033-32.696-21.569-45.41-20.613-3.384.255-6.515 1.09-9.424 2.577-31.031 15.85-21.118 97.821 22.19 183.026S317.868 56.657 348.899 40.808c29.842-15.242 21.787-91.625-17.393-173.235"/></g><g stroke="#fff" stroke-width="15"><use xlink:href="#F" x="-1.272" y="1.272"/><use xlink:href="#G" x="-1.272" y="1.272"/><path d="M245.668-248.477c-16.872-14.033-32.696-21.569-45.41-20.613-3.384.255-6.515 1.09-9.424 2.577-31.031 15.85-21.118 97.821 22.19 183.026S316.596 57.929 347.627 42.08c29.842-15.242 21.787-91.625-17.393-173.235"/></g></g><use xlink:href="#H" fill="#b3b3b3" filter="url(#D)"/><use xlink:href="#H" x="-2" y="-2" fill="#fff"/></g></svg>
