<svg xmlns="http://www.w3.org/2000/svg" height="48" viewBox="0.171 0.201 512 512" width="48"><filter id="A" color-interpolation-filters="sRGB" height="1.088" width="1.089" x="-.045" y="-.044"><feGaussianBlur stdDeviation="8.785"/></filter><linearGradient id="B" gradientUnits="userSpaceOnUse" spreadMethod="pad" x1="139.22" x2="452.774" y1="116.239" y2="499.348"><stop offset="0" stop-color="#8381c5"/><stop offset=".566" stop-color="#7e55b3" stop-opacity=".996"/><stop offset="1" stop-color="#a52ecb" stop-opacity=".992"/></linearGradient><linearGradient id="C" gradientUnits="userSpaceOnUse" x1="444.955" x2="174.692" y1="393.916" y2="67.675"><stop offset="0" stop-color="#411f5d"/><stop offset="1" stop-color="#5b2a85"/></linearGradient><path d="M491.669 257.759c0 131.794-105.76 238.635-236.222 238.635S19.226 389.554 19.226 257.759 124.986 19.124 255.448 19.124s236.222 106.84 236.222 238.635z" transform="matrix(.98685 0 0 .98685 3.034404 2.52504)" opacity=".405" fill="#211f46" fill-opacity=".996" stroke="#0a0b1b" stroke-width="8.533" filter="url(#A)"/><path d="M488.238 256.895c0 130.061-104.369 235.497-233.115 235.497S22.008 386.956 22.008 256.895 126.377 21.398 255.123 21.398s233.115 105.435 233.115 235.497z" fill="url(#B)" stroke="url(#C)" stroke-width="13.338"/><path d="M175 422.311s19.738 1.396 45.131-.842c10.283-.906 49.327-4.741 78.517-11.143 0 0 35.59-7.617 54.63-14.633 19.923-7.342 30.764-13.573 35.643-22.402-.213-1.809 1.502-8.224-7.685-12.078-23.489-9.852-50.73-8.07-104.634-9.213-59.777-2.054-79.663-12.06-90.256-20.118-10.158-8.175-5.05-30.793 38.474-50.715 21.924-10.609 107.871-30.187 107.871-30.187l-94.013-44.89c-9.731-4.763-25.303-11.936-28.678-20.614-3.827-8.331 9.038-15.507 16.225-17.562 23.145-6.676 55.818-10.825 85.555-11.291 14.947-.234 17.373-1.196 17.373-1.196 20.624-3.421 34.201-17.532 28.545-39.879-5.078-22.81-31.862-36.214-57.314-31.574-23.968 4.37-81.738 21.15-81.738 21.15 71.408-.618 83.359.574 88.697 8.037 3.152 4.407-1.432 10.451-20.476 13.561-20.733 3.386-63.831 7.464-63.831 7.464-41.345 2.455-70.468 2.62-79.203 21.113-5.707 12.082 6.085 22.763 11.254 29.449 21.841 24.289 53.388 37.389 73.695 47.036 7.641 3.63 30.059 10.484 30.059 10.484-65.878-3.623-113.4 16.605-141.276 39.896-31.529 29.163-17.581 63.924 47.012 85.327 38.152 12.642 57.072 18.587 113.981 13.462 33.52-1.807 38.804-.732 39.138 2.019.471 3.872-37.231 13.492-47.524 16.461-26.185 7.553-94.828 22.804-95.171 22.878z" fill="#fff" fill-rule="evenodd"/></svg>
