<svg height="48" viewBox=".171 .201 512 512" width="48" xmlns="http://www.w3.org/2000/svg" xmlns:xlink="http://www.w3.org/1999/xlink"><filter id="a" color-interpolation-filters="sRGB" height="1.088351" width="1.089254" x="-.044627" y="-.044175"><feGaussianBlur stdDeviation="8.7848425"/></filter><linearGradient id="b" gradientTransform="matrix(.87385837 0 0 .82818057 246.00762 250.28138)" gradientUnits="userSpaceOnUse" spreadMethod="pad" x1="-122.20192" x2="236.61363" y1="-161.8512" y2="300.73987"><stop offset="0" stop-color="#8381c5"/><stop offset=".56639391" stop-color="#7e55b3" stop-opacity=".996078"/><stop offset="1" stop-color="#a52ecb" stop-opacity=".992157"/></linearGradient><linearGradient id="c" gradientUnits="userSpaceOnUse" x1="444.95487270867" x2="174.69214856548" y1="393.91610060129" y2="67.67521274833"><stop offset="0" stop-color="#411f5d"/><stop offset="1" stop-color="#5b2a85"/></linearGradient><path d="m491.66937 257.75916c0 131.79436-105.76 238.63481-236.22155 238.63481s-236.221539-106.84045-236.221539-238.63481c0-131.79437 105.759989-238.634808 236.221539-238.634808s236.22155 106.840438 236.22155 238.634808z" style="opacity:.405;fill:#211f46;fill-opacity:.996078;stroke:#0a0b1b;stroke-width:8.533334;filter:url(#a)" transform="matrix(.98684957 0 0 .98684957 3.034404 2.52504)"/><path d="m488.23812 256.89456c0 130.06121-104.3692 235.49665-233.1151 235.49665s-233.115201-105.43544-233.115201-235.49665c0-130.06123 104.369301-235.49666 233.115201-235.49666s233.1151 105.43543 233.1151 235.49666z" fill="url(#b)" stroke="url(#c)" stroke-width="13.338168"/><path d="m175.0003 422.31057s19.7385 1.39634 45.1312-.84159c10.2834-.9063 49.3267-4.74128 78.5169-11.14289 0 0 35.5899-7.61669 54.6301-14.63335 19.9225-7.34185 30.7636-13.57304 35.6433-22.40243-.2128-1.80907 1.5024-8.22438-7.685-12.07788-23.4887-9.85199-50.73-8.06998-104.6338-9.21285-59.7772-2.05391-79.6627-12.05971-90.2556-20.11838-10.1579-8.17519-5.05-30.79254 38.4742-50.71499 21.9244-10.60898 107.8705-30.18698 107.8705-30.18698-28.9451-14.30725-82.9186-39.45893-94.0134-44.89023-9.7308-4.76348-25.303-11.93595-28.6785-20.61368-3.8271-8.33089 9.0383-15.50726 16.2248-17.56236 23.1448-6.67602 55.8182-10.82538 85.5548-11.29122 14.9472-.23417 17.3734-1.19586 17.3734-1.19586 20.6243-3.42116 34.2014-17.53175 28.5446-39.87876-5.0783-22.81046-31.8617-36.21365-57.3138-31.57361-23.9682 4.36956-81.7378 21.15007-81.7378 21.15007 71.4075-.61803 83.3592.57378 88.697 8.03676 3.1523 4.40742-1.4324 10.45068-20.4765 13.56099-20.733 3.38616-63.8312 7.46399-63.8312 7.46399-41.3449 2.4554-70.4682 2.61974-79.203 21.11314-5.7065 12.08196 6.0854 22.7633 11.2538 29.4493 21.8407 24.28905 53.3882 37.38879 73.6948 47.03553 7.6405 3.62963 30.0586 10.48407 30.0586 10.48407-65.8782-3.62335-113.4003 16.6055-141.2764 39.89622-31.5288 29.16261-17.581403 63.92354 47.0124 85.3268 38.1517 12.6416 57.0725 18.58695 113.9815 13.46232 33.52-1.80673 38.8041-.73155 39.1383 2.01892.4705 3.87242-37.2311 13.49165-47.524 16.4606-26.1853 7.55306-94.8276 22.80438-95.1712 22.87835z" fill="#fff" fill-rule="evenodd"/></svg>