<svg xmlns="http://www.w3.org/2000/svg" width="602" height="734"><defs><linearGradient x1="50%" y1="0%" x2="50%" y2="100%" id="A"><stop stop-color="#16b0ed" stop-opacity=".8" offset="0%"/><stop stop-color="#0f59b2" stop-opacity=".837" offset="100%"/></linearGradient><linearGradient x1="50%" y1="0%" x2="50%" y2="100%" id="B"><stop stop-color="#7db643" offset="0%"/><stop stop-color="#367533" offset="100%"/></linearGradient><linearGradient x1="50%" y1="0%" x2="50%" y2="100%" id="C"><stop stop-color="#88c649" stop-opacity=".8" offset="0%"/><stop stop-color="#439240" stop-opacity=".84" offset="100%"/></linearGradient></defs><g transform="translate(2 3)" fill-rule="evenodd"><path d="M0 155.57L155-1v728L0 572.238V155.57z" fill="url(#A)"/><path d="M443.06 156.982L600-1l-3.181 728L442 572.22l1.06-415.238z" fill="url(#B)" transform="matrix(-1 0 0 1 1042 0)"/><path d="M154.986 0L558 615.19 445.225 728 42 114.172 154.986 0z" fill="url(#C)"/><path d="M155 283.832L154.787 308 31 124.71 42.462 113 155 283.832z" fill-opacity=".13" fill="#000"/></g></svg>
