<svg xmlns="http://www.w3.org/2000/svg" width="448" height="448"><defs><linearGradient id="a" x1="50%" x2="50%" y1="0%" y2="100%"><stop offset="0%" stop-color="#4D4D4D"/><stop offset="100%" stop-color="#444"/></linearGradient><linearGradient id="b" x1="55.117%" x2="63.68%" y1="69.542%" y2="26.578%"><stop offset="0%" stop-color="#FF9700"/><stop offset="53%" stop-color="#F48E00"/><stop offset="100%" stop-color="#CE6E00"/></linearGradient></defs><g fill="none" fill-rule="evenodd"><rect width="448" height="448" fill="url(#a)" fill-rule="nonzero" rx="28"/><path fill="url(#b)" d="M352 225.117c0-3.899-2.88-6.147-6.415-5.03l-243.17 77.135c-3.542 1.124-6.415 5.2-6.415 9.092v78.835c0 3.898 2.873 6.154 6.415 5.03l243.17-77.128c3.535-1.124 6.415-5.2 6.415-9.1v-78.834z"/><path fill="#FF9800" d="M96 223.042c0 3.899 2.873 7.975 6.414 9.1l243.172 77.136c3.541 1.124 6.414-1.131 6.414-5.022v-78.837c0-3.892-2.873-7.968-6.414-9.092L102.414 139.19c-3.541-1.124-6.414 1.124-6.414 5.022v78.83z"/><path fill="#FF9800" d="M352 63.319c0-3.899-2.88-6.154-6.415-5.03l-243.17 77.127c-3.542 1.124-6.415 5.2-6.415 9.1v78.834c0 3.899 2.873 6.147 6.415 5.03l243.17-77.134c3.535-1.124 6.415-5.2 6.415-9.092V63.319z"/></g></svg>