<svg xmlns="http://www.w3.org/2000/svg" width="256" height="256"  stroke="#000" stroke-width="5"><path d="M128.026 8.95l-120 121.429 119.286 119.285 120-120.714-119.286-120z" fill="#19953f"/><g fill="#d0d0cf"><path d="M26.243 20.561l-5 5v19.285l5.446 5.268 7.233.179.178 168.125 7.143 7.143h22.143l177.143-180V26.988l-5-5-80-.714-5 7.143v15.714l5 6.429h6.428l-62.143 60 .625-59.732h7.143l5.804-5.983V29.131l-6.429-7.143-80.714-1.428z"/><path d="M136.908 136.888l4.286-3.572 12.143.358 3.928 3.928-4.285 12.143-3.572 3.214-12.648-.148-3.423-4.137 3.571-11.786zm-15 22.857l28.572.357-15 45h5.357l-3.214 8.929-26.786-.358 14.643-43.214-7.143.357 3.571-11.071zm35.357.357l-3.719 9.686h6.83l-15.253 44.243h23.571l3.406-8.72-6.115-.4 8.423-26.237 15-.358-11.071 35 23.153.358 2.916-8.258-5.564-.163 9.138-26.58h12.857l-11.072 35 24.33.253 3.005-8.273-5.817-.194 11.697-37.143-4.643-7.5h-14.643l-5.714 5.715h-5.715l-6.071-6.072h-12.5l-5.357 5.357h-6.072l-6.071-5.714h-18.929z"/></g></svg>
